<?xml version="1.0" standalone="no"?>
<!DOCTYPE svg PUBLIC "-//W3C//DTD SVG 20010904//EN"
 "http://www.w3.org/TR/2001/REC-SVG-20010904/DTD/svg10.dtd">
<svg version="1.0" xmlns="http://www.w3.org/2000/svg"
 width="115.000000pt" height="49.000000pt" viewBox="0 0 115.000000 49.000000"
 preserveAspectRatio="xMidYMid meet">
<metadata>
Created by potrace 1.16, written by Peter Selinger 2001-2019
</metadata>
<g transform="translate(0.000000,49.000000) scale(0.100000,-0.100000)"
fill="#000000" stroke="none">
<path d="M480 476 c0 -8 16 -28 35 -44 l36 -29 -37 -32 c-47 -42 -37 -50 21
-17 l45 27 45 -27 c25 -14 49 -24 52 -20 5 5 -26 35 -61 58 -7 5 3 19 27 38
43 37 48 60 12 60 -14 0 -25 -5 -25 -11 0 -6 8 -8 18 -5 14 5 13 3 -3 -9 -18
-15 -21 -14 -29 5 -11 24 -61 28 -70 5 -3 -8 -13 -15 -23 -14 -11 0 -13 3 -5
6 21 8 13 23 -13 23 -15 0 -25 -6 -25 -14z"/>
<path d="M5 195 l0 -95 33 0 c31 0 42 12 22 25 -5 3 -10 19 -10 36 0 28 1 29
50 29 49 0 50 -1 50 -29 0 -17 -4 -33 -10 -36 -20 -13 -9 -25 23 -25 l33 0 -4
85 c-3 59 -1 85 7 85 6 0 11 5 11 10 0 6 -18 10 -40 10 -22 0 -40 -4 -40 -10
0 -5 5 -10 10 -10 6 0 10 -11 10 -25 0 -23 -3 -25 -50 -25 -47 0 -50 2 -50 25
0 14 5 25 10 25 6 0 10 5 10 10 0 6 -15 10 -32 10 l-33 0 0 -95z"/>
<path d="M555 185 l0 -85 33 0 c31 0 42 12 22 25 -5 3 -10 16 -10 28 l1 22 19
-23 c10 -13 16 -30 13 -37 -4 -12 4 -15 36 -15 23 0 41 2 41 5 0 3 -18 24 -40
47 -37 39 -39 43 -24 60 9 9 25 20 35 23 11 4 19 13 19 21 0 11 -9 14 -32 12
-23 -2 -33 -8 -32 -19 1 -9 -7 -21 -17 -28 -15 -9 -19 -8 -19 3 0 8 5 18 10
21 17 11 1 25 -28 25 l-27 0 0 -85z"/>
<path d="M725 185 l0 -85 61 0 c58 0 74 8 74 36 0 2 -20 1 -45 -3 -42 -5 -45
-4 -45 17 0 20 4 22 35 17 32 -5 35 -4 35 18 0 22 -3 23 -35 18 -31 -5 -35 -3
-35 16 0 24 28 28 60 9 16 -10 24 -10 40 0 34 21 40 14 40 -48 0 -33 -4 -60
-10 -60 -5 0 -10 -4 -10 -10 0 -5 18 -10 40 -10 38 0 52 12 30 25 -5 3 -10 31
-10 61 0 55 12 68 38 42 10 -10 17 -10 32 0 11 6 24 12 30 12 13 0 13 -107 0
-115 -22 -13 -8 -25 30 -25 22 0 40 5 40 10 0 6 -4 10 -10 10 -6 0 -10 27 -10
60 0 61 11 75 38 48 9 -9 12 -6 12 14 l0 26 -145 1 c-93 0 -145 -3 -145 -9 0
-7 -6 -7 -19 0 -11 5 -41 10 -68 10 l-48 0 0 -85z"/>
</g>
</svg>
